HIERARCHY
ROOT Hips
{
	OFFSET	0.00	0.00	0.00
	CHANNELS 6 Xposition Yposition Zposition Zrotation Xrotation Yrotation
	JOINT Spine
	{
		OFFSET	 0.00	0.01	 0.00
		CHANNELS 3 Zrotation Xrotation Yrotation
		JOINT Spine1
		{
			OFFSET	 0.00	 2.45913012437421	 0.00
			CHANNELS 3 Zrotation Xrotation Yrotation
            JOINT Neck
            {
                OFFSET	 0.00	 2.48462964506057	 0.00
                CHANNELS 3 Zrotation Xrotation Yrotation
                JOINT Head
                {
                    OFFSET	 0.00	 0.927524780924562	 0.00
                    CHANNELS 3 Zrotation Xrotation Yrotation
                    End Site 
                    {
                        OFFSET	 0.00	 1.14999962169752	 0.00
                    }
                }
            }
			JOINT LeftShoulder
			{
				OFFSET	 0.00	 2.48462964506057	 0.00
				CHANNELS 3 Zrotation Xrotation Yrotation
				JOINT LeftUpArm
				{
					OFFSET	 0.00	 1.24881979654096	 0.00
					CHANNELS 3 Zrotation Xrotation Yrotation
					JOINT LeftForeArm
					{
						OFFSET	 0.00	2.59758046908119	 0.00
						CHANNELS 3 Zrotation Xrotation Yrotation
						JOINT LeftHand
						{
							OFFSET	 0.00	2.45542024364365	 0.00
							CHANNELS 3 Zrotation Xrotation Yrotation
							JOINT LeftHandThumb 
							{
								OFFSET	 0.00	0.00	 0.00
								CHANNELS 3 Zrotation Xrotation Yrotation
								End Site
								{
									OFFSET	 0.00	0.00	1.00000003353624
								}
							}
							JOINT L_Wrist_End 
							{
								OFFSET	 0.00	0.99999967115358	 0.00
								CHANNELS 3 Zrotation Xrotation Yrotation
								End Site 
								{
									OFFSET	 0.00	 0.00	 0.00
								}
							}
						}
					}
				}
			}
			JOINT RightShoulder
			{
				OFFSET	 0.00	 2.48462964506057	 0.00
				CHANNELS 3 Zrotation Xrotation Yrotation
				JOINT RightUpArm
				{
					OFFSET	 0.00	 1.24881979654096	 0.00
					CHANNELS 3 Zrotation Xrotation Yrotation
					JOINT RightForeArm
					{
						OFFSET	 0.00	2.59758046908119	 0.00
						CHANNELS 3 Zrotation Xrotation Yrotation
						JOINT RightHand
						{
							OFFSET	 0.00	2.45542024364365	 0.00
							CHANNELS 3 Zrotation Xrotation Yrotation
							JOINT RightHandThumb 
							{
								OFFSET	 0.00	0.00	 0.00
								CHANNELS 3 Zrotation Xrotation Yrotation
								End Site
								{
									OFFSET	 0.00	0.00	1.00000003353624
								}
							}
							JOINT R_Wrist_End 
							{
								OFFSET	 0.00	0.99999967115358	 0.00
								CHANNELS 3 Zrotation Xrotation Yrotation
								End Site 
								{
									OFFSET	 0.00	 0.00	 0.00
								}
							}
						}
					}
				}
			}
		}
	}
	JOINT LeftUpLeg
	{
		OFFSET	 1.2719394002717	 0.00	 0.00
		CHANNELS 3 Zrotation Xrotation Yrotation
		JOINT LeftLowLeg
		{
			OFFSET	 0.00	-4.3429100912261	 0.00
			CHANNELS 3 Zrotation Xrotation Yrotation
			JOINT LeftFoot
			{
				OFFSET	 0.00	-4.48767017425826	 0.00
				CHANNELS 3 Zrotation Xrotation Yrotation
				JOINT LeftToeBase
                {
                    OFFSET	 0.00	0.00	 1.51507020887566
                    CHANNELS 3 Zrotation Xrotation Yrotation
                    End Site 
                    {
                        OFFSET	 0.00	0.00	 0.75000010571191
                    }
                }
			}
		}
	}
	JOINT RightUpLeg
	{
		OFFSET	 -1.2719393604653	 0.00	 0.00
		CHANNELS 3 Zrotation Xrotation Yrotation
		JOINT RightLowLeg
		{
			OFFSET	 0.00	-4.3429100912261	 0.00
			CHANNELS 3 Zrotation Xrotation Yrotation
			JOINT RightFoot
			{
				OFFSET	 0.00	-4.48767017425826	 0.00
				CHANNELS 3 Zrotation Xrotation Yrotation
				JOINT RightToeBase
                {
                    OFFSET	 0.00	0.00	 1.51507020887566
                    CHANNELS 3 Zrotation Xrotation Yrotation
                    End Site 
                    {
                        OFFSET	 0.00	0.00	 0.749999965609858
                    }
                }   
			}
		}
	}
}
MOTION 
Frames:	8 
Frame Time: 0.02 
 -0.9167900085449219 1.5440400695800782 9.07260986328125 114.869 81.7529 -118.705 4.32618 -18.4315 3.45741 -19.4579 17.0916 6.83084 17.3312 34.7662 1.62659 -17.7974 -70.2841 -5.9022 -117.2107 5.94355 10.8717 -33.3131 20.3865 -355.027 0.0 26.5015 0.0 11.5811 -7.23224 23.49 0.0 0.0 0.0 0.0 0.0 0.0 125.9627 0.723025 176.512 -43.125 -12.6161 -195.916 0.0 22.357 0.0 -2.64563 -3.34971 -3.21291 0.0 0.0 0.0 0.0 0.0 0.0 -14.0514 -2.28716 -13.2721 0.0 5.66937 0.0 -2.13195 -4.3134995 20.6002 0.0 -10.4234295 0.0 -1.02434 -23.3483 384.0 0.0 44.5031 0.0 9.11509 -11.1994 -16.8359 0.0 -19.081669 0.0 
  -0.9140730285644532 1.551300048828125 9.0731298828125 114.755 81.7757 -118.474 4.37759 -18.3533 3.48934 -19.551 17.0663 6.78714 17.4558 34.7512 1.53444 -17.5908 -70.2887 -5.75057 -117.2473 5.90442 10.9646 -33.1503 20.2732 -354.673 0.0 27.0149 0.0 11.2247 -6.91116 24.6054 0.0 0.0 0.0 0.0 0.0 0.0 125.9461 0.641676 176.488 -43.1195 -12.5422 -196.532 0.0 23.1942 0.0 -2.91252 -3.18271 -3.09608 0.0 0.0 0.0 0.0 0.0 0.0 -14.0668 -2.3239 -13.4343 0.0 5.7199 0.0 -2.14668 -4.2880993 20.6496 0.0 -10.40773 0.0 -1.05903 -23.331 383.937 0.0 44.4785 0.0 9.1273 -11.170601 -16.8887 0.0 -19.06423 0.0 
  -0.9113089752197265 1.5588800048828124 9.0735302734375 114.57 81.7929 -118.191 4.44121 -18.2289 3.56905 -19.6774 16.9887 6.74665 17.6554 34.7518 1.3724 -17.2953 -70.2648 -5.56003 -117.2055 5.8388 10.9663 -33.1128 20.0358 -354.322 0.0 27.3531 0.0 10.9016 -6.61448 25.6387 0.0 0.0 0.0 0.0 0.0 0.0 125.9253 0.556742 176.499 -43.1452 -12.3416 -197.076 0.0 23.8976 0.0 -3.11671 -2.93467 -2.70955 0.0 0.0 0.0 0.0 0.0 0.0 -14.0922 -2.35519 -13.6294 0.0 5.76583 0.0 -2.2038 -4.2747 20.7302 0.0 -10.451799 0.0 -1.09496 -23.3069 383.911 0.0 44.444 0.0 9.1622 -11.1534 -16.9314 0.0 -19.06075 0.0 
  -0.9086129760742188 1.5669400024414062 9.073740234375 114.432 81.7857 -117.998 4.48865 -18.052 3.67975 -19.8034 16.7993 6.68298 17.8416 34.8277 1.2664 -16.972 -70.2556 -5.40831 -117.1874 5.72269 10.9277 -33.0917 19.6456 -354.104 0.0 27.5718 0.0 10.5581 -6.51317 26.3961 0.0 0.0 0.0 0.0 0.0 0.0 125.8569 0.46468 176.494 -43.2533 -12.0878 -197.545 0.0 24.419 0.0 -3.25298 -2.73441 -2.41684 0.0 0.0 0.0 0.0 0.0 0.0 -14.1296 -2.41661 -13.7378 0.0 5.82279 0.0 -2.23597 -4.2623005 20.7647 0.0 -10.47565 0.0 -1.12097 -23.3262 383.944 0.0 44.4585 0.0 9.22483 -11.1311 -16.9446 0.0 -19.06682 0.0 
  -0.9064289855957032 1.5751100158691407 9.07385009765625 114.361 81.7776 -117.894 4.56044 -17.8214 3.82855 -19.9687 16.5147 6.57477 18.0914 34.9404 1.11034 -16.6333 -70.2496 -5.22445 -117.1503 5.57337 10.8872 -33.1025 19.1266 -354.046 0.0 27.5848 0.0 10.2422 -6.45909 26.2634 0.0 0.0 0.0 0.0 0.0 0.0 125.831604 0.362498 176.475 -43.3316 -11.7511 -198.049 0.0 24.8119 0.0 -3.31732 -2.58979 -2.09551 0.0 0.0 0.0 0.0 0.0 0.0 -14.1587 -2.47779 -13.9117 0.0 5.85847 0.0 -2.29026 -4.256901 20.8625 0.0 -10.53293 0.0 -1.1331 -23.356 383.987 0.0 44.4517 0.0 9.24875 -11.113899 -16.9956 0.0 -19.02647 0.0 
  -0.9043049621582031 1.5825700378417968 9.073590087890626 114.209 81.7635 -117.71 4.62369 -17.5849 3.97476 -20.167 16.2471 6.47193 18.4385 34.9919 0.849984 -16.1937 -70.2219 -4.8374 -117.0831 5.41316 10.8402 -33.196 18.5333 -354.258 0.0 27.3761 0.0 10.3235 -6.55584 26.1887 0.0 0.0 0.0 0.0 0.0 0.0 125.843704 0.264576 176.424 -43.3906 -11.4296 -198.377 0.0 25.0065 0.0 -3.16533 -2.54795 -1.8342 0.0 0.0 0.0 0.0 0.0 0.0 -14.1952 -2.54393 -13.916 0.0 5.92722 0.0 -2.35153 -4.2602997 20.7986 0.0 -10.59845 0.0 -1.15823 -23.3754 384.023 0.0 44.4498 0.0 9.25361 -11.104 -17.0457 0.0 -19.03523 0.0 
  -0.9031500244140624 1.5886399841308594 9.073280029296875 114.13 81.7521 -117.638 4.67802 -17.3876 4.12717 -20.3479 16.0235 6.41495 18.8002 35.0114 0.554511 -15.7761 -70.1886 -4.43723 -117.0287 5.23902 10.8576 -33.2619 17.9423 -354.576 0.0 26.9193 0.0 10.3645 -6.64396 25.3213 0.0 0.0 0.0 0.0 0.0 0.0 125.8702 0.189035 176.406 -43.4324 -11.0259 -198.636 0.0 25.0533 0.0 -3.03637 -2.4901 -1.78157 0.0 0.0 0.0 0.0 0.0 0.0 -14.2102 -2.57673 -13.9302 0.0 5.9222 0.0 -2.3983 -4.2556 20.791 0.0 -10.65841 0.0 -1.14331 -23.4043 384.116 0.0 44.4559 0.0 9.2819 -11.1015 -17.1065 0.0 -19.0018 0.0 
  -0.9013690185546875 1.5956100463867187 9.0727001953125 114.18 81.735 -117.675 4.72354 -17.2176 4.2482 -20.5111 15.8653 6.37426 19.1616 34.9341 0.21463 -15.3713 -70.1566 -4.02798 -116.9801 5.09335 10.7631 -33.3792 17.2585 -354.893 0.0 26.2509 0.0 10.4702 -6.89956 23.5455 0.0 0.0 0.0 0.0 0.0 0.0 125.953995 0.139704 176.408 -43.3503 -10.5551 -198.934 0.0 25.024 0.0 -2.96619 -2.39116 -1.62747 0.0 0.0 0.0 0.0 0.0 0.0 -14.2287 -2.65496 -13.8496 0.0 5.96337 0.0 -2.45545 -4.2700996 20.6697 0.0 -10.68166 0.0 -1.15059 -23.4732 384.136 0.0 44.4818 0.0 9.24251 -11.0763 -17.156 0.0 -18.98322 0.0 
